<?xml version="1.0" encoding="iso-8859-1"?>
<!-- Generator: Adobe Illustrator 19.0.0, SVG Export Plug-In . SVG Version: 6.00 Build 0)  -->
<svg version="1.1" id="Layer_1" xmlns="http://www.w3.org/2000/svg" xmlns:xlink="http://www.w3.org/1999/xlink" x="0px" y="0px"
	 viewBox="0 0 512 512" style="enable-background:new 0 0 512 512;" xml:space="preserve">
<circle style="fill:#FF2746;" cx="256" cy="256" r="256"/>
<path style="fill:#940030;" d="M512,256c0-13.324-1.021-26.41-2.782-39.191l-75.755-78.331l-4.979,124.647l-43.327-43.327
	l-207.962,6.315L92.887,140.45L80.031,403.88l88.076,92.631C195.517,506.53,225.12,512,256,512C397.384,512,512,397.384,512,256z"/>
<path style="fill:#FFEDB5;" d="M369.778,210.316H142.222c-9.519,0-17.239,7.72-17.239,17.239c0,9.519,7.72,17.239,17.239,17.239
	h106.02v145.67h-20.687c-4.284,0-7.758,3.474-7.758,7.758c0,4.284,3.474,7.758,7.758,7.758h56.889c4.284,0,7.758-3.474,7.758-7.758
	c0-4.284-3.474-7.758-7.758-7.758h-20.687v-145.67h106.02c9.519,0,17.239-7.72,17.239-17.239
	C387.017,218.036,379.297,210.316,369.778,210.316z"/>
<path style="fill:#FEE187;" d="M369.778,210.316H254.564V405.98h29.88c4.284,0,7.758-3.474,7.758-7.758
	c0-4.284-3.474-7.758-7.758-7.758h-20.687v-145.67h106.02c9.519,0,17.239-7.72,17.239-17.239
	C387.017,218.036,379.297,210.316,369.778,210.316z"/>
<g>
	<path style="fill:#FFC61B;" d="M199.111,276.687H93.091V142.222c0-4.284-3.474-7.758-7.758-7.758c-4.284,0-7.758,3.474-7.758,7.758
		v256c0,4.284,3.474,7.758,7.758,7.758c4.284,0,7.758-3.474,7.758-7.758v-63.784h98.263v63.784c0,4.284,3.474,7.758,7.758,7.758
		c4.284,0,7.758-3.474,7.758-7.758V284.444C206.869,280.161,203.395,276.687,199.111,276.687z"/>
	<path style="fill:#FFC61B;" d="M426.667,134.465c-4.284,0-7.758,3.474-7.758,7.758v134.465h-106.02
		c-4.284,0-7.758,3.474-7.758,7.758v113.778c0,4.284,3.474,7.758,7.758,7.758s7.758-3.474,7.758-7.758v-63.784h98.263v63.784
		c0,4.284,3.474,7.758,7.758,7.758s7.758-3.474,7.758-7.758v-256C434.424,137.938,430.951,134.465,426.667,134.465z"/>
</g>
<g>
</g>
<g>
</g>
<g>
</g>
<g>
</g>
<g>
</g>
<g>
</g>
<g>
</g>
<g>
</g>
<g>
</g>
<g>
</g>
<g>
</g>
<g>
</g>
<g>
</g>
<g>
</g>
<g>
</g>
</svg>
