<?xml version="1.0" encoding="iso-8859-1"?>
<!-- Generator: Adobe Illustrator 19.0.0, SVG Export Plug-In . SVG Version: 6.00 Build 0)  -->
<svg xmlns="http://www.w3.org/2000/svg" xmlns:xlink="http://www.w3.org/1999/xlink" version="1.1" id="Layer_1" x="0px" y="0px" viewBox="0 0 512 512" style="enable-background:new 0 0 512 512;" xml:space="preserve" width="512px" height="512px">
<g>
	<g>
		<path d="M512,329.684v-90.752h-10.871c-33.195,0-63.343,13.03-85.828,34.133H264.533V136.532h216.883    c6.366,0,11.81-4.335,13.235-10.547c1.425-6.212-1.596-12.484-7.339-15.258L259.712,0.852c-2.347-1.135-5.077-1.135-7.415,0    L24.687,110.727c-5.734,2.773-8.755,9.045-7.33,15.258c1.417,6.212,6.861,10.547,13.235,10.547h216.875v136.533H96.708    c-22.494-21.103-52.634-34.133-85.837-34.133H0v90.752c0,23.398,17.724,42.539,40.405,45.235L8.789,501.401    c-1.143,4.565,1.638,9.199,6.212,10.342c0.691,0.171,1.391,0.256,2.074,0.256c3.823,0,7.305-2.586,8.277-6.468l30.558-122.24    l38.349,122.718c1.143,3.661,4.506,5.99,8.141,5.99c0.845,0,1.707-0.128,2.551-0.393c4.489-1.399,6.997-6.187,5.598-10.684    L71.339,375.466h65.195v-10.871c0-14.123-2.44-27.648-6.758-40.329H204.8v34.133h25.6v68.267    c0,37.641-30.626,68.267-68.267,68.267h-17.067c-4.71,0-8.533,3.814-8.533,8.533c0,4.719,3.823,8.533,8.533,8.533h17.067h187.733    h17.067c4.719,0,8.533-3.814,8.533-8.533c0-4.719-3.814-8.533-8.533-8.533h-17.067c-37.641,0-68.267-30.626-68.267-68.267v-68.267    h25.6v-34.133h75.025c-4.309,12.681-6.758,26.206-6.758,40.329v10.871h57.344l-31.488,125.935    c-1.143,4.565,1.638,9.199,6.212,10.342c0.691,0.171,1.391,0.256,2.074,0.256c3.823,0,7.305-2.586,8.277-6.468l30.558-122.24    l38.349,122.718c1.143,3.661,4.506,5.99,8.141,5.99c0.845,0,1.707-0.128,2.551-0.393c4.497-1.399,6.997-6.187,5.598-10.684    l-39.211-125.457h2.347C491.46,375.466,512,354.926,512,329.684z M398.353,292.522c-0.947,1.34-1.852,2.705-2.748,4.079    c-0.922,1.451-1.809,2.918-2.671,4.403c-1.135,1.929-2.253,3.849-3.285,5.837c-0.068,0.12-0.145,0.239-0.205,0.358H307.2H204.8    h-82.236c-0.068-0.119-0.145-0.239-0.205-0.358c-1.033-1.988-2.15-3.908-3.285-5.837c-0.87-1.485-1.749-2.953-2.68-4.403    c-0.887-1.374-1.801-2.739-2.739-4.079c-0.555-0.785-1.041-1.621-1.604-2.389h287.906    C399.394,290.9,398.899,291.737,398.353,292.522z" fill="#000000"/>
	</g>
</g>
<g>
</g>
<g>
</g>
<g>
</g>
<g>
</g>
<g>
</g>
<g>
</g>
<g>
</g>
<g>
</g>
<g>
</g>
<g>
</g>
<g>
</g>
<g>
</g>
<g>
</g>
<g>
</g>
<g>
</g>
</svg>
