<?xml version="1.0" encoding="iso-8859-1"?>
<!-- Generator: Adobe Illustrator 19.0.0, SVG Export Plug-In . SVG Version: 6.00 Build 0)  -->
<svg xmlns="http://www.w3.org/2000/svg" xmlns:xlink="http://www.w3.org/1999/xlink" version="1.1" id="Layer_1" x="0px" y="0px" viewBox="0 0 392.547 392.547" style="enable-background:new 0 0 392.547 392.547;" xml:space="preserve" width="512px" height="512px">
<g>
	<g>
		<path d="M314.168,0.855c-5.56-2.327-11.96,0.259-14.287,5.818c-1.745,4.073-33.681,80.291-42.602,166.659H140.463    c-19.329,0-34.974,15.709-34.974,34.974v29.414H82.605c-6.012,0-10.925,4.848-10.925,10.925c0,6.012,4.849,10.925,10.925,10.925    h81.584v79.58H107.3c-6.012,0-10.925,4.848-10.925,10.925v31.547c0,6.012,4.849,10.925,10.925,10.925    c6.077,0,10.925-4.848,10.925-10.925V361h45.964v20.622c0,6.012,4.849,10.925,10.925,10.925c6.012,0,10.925-4.848,10.925-10.925    V361h45.964v20.622c0,6.012,4.849,10.925,10.925,10.925c6.012,0,10.925-4.848,10.925-10.925v-31.547    c0-6.012-4.849-10.925-10.925-10.925h-56.889v-79.58h81.584c3.103,0,6.012-1.293,8.146-3.62c2.133-2.327,3.103-5.301,2.715-8.404    c-11.119-106.796,41.05-231.111,41.503-232.339C322.378,9.646,319.728,3.246,314.168,0.855z M127.275,237.913v-0.129V208.37    c0-7.24,5.883-13.123,13.123-13.123h115.2c-0.776,14.158-0.776,28.444,0.129,42.667H127.275z" fill="#000000"/>
	</g>
</g>
<g>
</g>
<g>
</g>
<g>
</g>
<g>
</g>
<g>
</g>
<g>
</g>
<g>
</g>
<g>
</g>
<g>
</g>
<g>
</g>
<g>
</g>
<g>
</g>
<g>
</g>
<g>
</g>
<g>
</g>
</svg>
