<svg xmlns="http://www.w3.org/2000/svg" xmlns:xlink="http://www.w3.org/1999/xlink" preserveAspectRatio="xMidYMid" width="90" height="116" viewBox="0 0 90 116">
  <defs>
    <style>
      .cls-1, .cls-2 {
        fill: #4e4e4e;
      }

      .cls-1 {
        opacity: 0.8;
        fill-rule: evenodd;
      }
    </style>
  </defs>
  <g>
    <path d="M27.000,100.000 L61.000,100.000 C65.418,100.000 69.000,103.582 69.000,108.000 C69.000,112.418 65.418,116.000 61.000,116.000 L27.000,116.000 C22.582,116.000 19.000,112.418 19.000,108.000 C19.000,103.582 22.582,100.000 27.000,100.000 Z" class="cls-1"/>
    <path d="M27.000,-0.000 L61.000,-0.000 C65.418,-0.000 69.000,3.582 69.000,8.000 C69.000,12.418 65.418,16.000 61.000,16.000 L27.000,16.000 C22.582,16.000 19.000,12.418 19.000,8.000 C19.000,3.582 22.582,-0.000 27.000,-0.000 Z" class="cls-1"/>
    <rect y="8" width="90" height="100" class="cls-2"/>
  </g>
</svg>
