<?xml version="1.0" encoding="utf-8"?>
<!-- Generator: Adobe Illustrator 17.0.0, SVG Export Plug-In . SVG Version: 6.00 Build 0)  -->
<!DOCTYPE svg PUBLIC "-//W3C//DTD SVG 1.1//EN" "http://www.w3.org/Graphics/SVG/1.1/DTD/svg11.dtd">
<svg version="1.1" xmlns="http://www.w3.org/2000/svg" xmlns:xlink="http://www.w3.org/1999/xlink" x="0px" y="0px" width="645px"
	 height="585px" viewBox="0 0 645 585" enable-background="new 0 0 645 585" xml:space="preserve">
<g id="Layer_1" display="none">
	
		<image display="inline" overflow="visible" width="645" height="585" xlink:href="Ellipse-1.png"  transform="matrix(0.9769 0 0 0.9769 7 9)">
	</image>
</g>
<g id="Layer_2">
	<path fill="#9A9A9A" d="M254.124,521.18l16.367-34.831h100.297l16.576,34.831C387.364,521.18,325.045,553.703,254.124,521.18z"/>
	<path d="M259.055,441.866h123.378c0,0-2.728,36.09-9.862,46.582c0,0-52.667,34.202-103.235-2.098
		C269.336,486.349,262.202,477.536,259.055,441.866z"/>
	<path fill="#9A9A9A" d="M549.022,359.854l-34.828-16.373l0.018-100.297l34.834-16.57
		C549.046,226.614,581.558,288.938,549.022,359.854z"/>
	<path d="M469.708,354.923l0.022-123.378c0,0,36.09,2.734,46.58,9.87c0,0,34.192,52.673-2.117,103.235
		C514.193,344.65,505.379,351.782,469.708,354.923z"/>
	<path fill="#9A9A9A" d="M92.513,226.702l34.758,16.521l-0.446,100.296l-34.905,16.421
		C91.921,359.941,59.675,297.478,92.513,226.702z"/>
	<path d="M171.805,231.633l-0.549,123.377c0,0-36.078-2.888-46.537-10.069c0,0-33.967-52.818,2.557-103.225
		C127.276,241.717,136.121,234.622,171.805,231.633z"/>
	<path fill="#9A9A9A" d="M386.762,65.996l-16.343,34.843l-100.297,0.069l-16.6-34.82C253.522,66.088,315.818,33.522,386.762,65.996z
		"/>
	<path d="M381.831,145.314l-123.378,0.085c0,0,2.703-36.092,9.83-46.588c0,0,52.643-34.238,103.236,2.027
		C371.519,100.838,378.659,109.646,381.831,145.314z"/>
	<circle fill="#9A9A9A" cx="320.744" cy="293.234" r="162.126"/>
</g>
</svg>
